Coordinates
version=1
nRows=13
nColumns=30
inDegrees=yes

Units are S.I. units (second, meters, Newtons, ...)
Angles are in degrees.

endheader
time	floatyaw	floatroll	floatpitch	floatx	floaty	floatz	pro_sup_l	deviation_l	flexion_l	cmc_flexion_l	cmc_abduction_l	mp_flexion_l	ip_flexion_l	2mcp_flexion_l	2mcp_abduction_l	2pm_flexion_l	2md_flexion_l	3mcp_flexion_l	3mcp_abduction_l	3pm_flexion_l	3md_flexion_l	4mcp_flexion_l	4mcp_abduction_l	4pm_flexion_l	4md_flexion_l	5mcp_flexion_l	5mcp_abduction_l	5pm_flexion_l	5md_flexion_l
-1.495000	-160.147433	-5.066637	-73.570646	0.083283	-0.182844	-0.014881	101.258912	3.334920	-0.914582	15.438147	4.224804	-25.730879	-41.834149	31.186095	6.591912	42.032348	28.747285	24.351272	4.091452	44.101225	29.197959	13.010431	-4.424592	52.581267	36.349439	0.275586	-7.515272	63.105819	42.621947
-1.485000	-160.147433	-5.066637	-73.570646	0.083272	-0.182845	-0.014880	101.251030	3.334346	-0.913670	15.425284	4.252440	-25.744412	-41.840865	31.185761	6.595977	42.034336	28.749611	24.347012	4.093113	44.114835	29.206813	13.001906	-4.426243	52.601639	36.359116	0.271343	-7.521972	63.119108	42.633775
-1.475000	-160.147433	-5.066637	-73.570646	0.083263	-0.182844	-0.014880	101.247555	3.334138	-0.911924	15.414308	4.281274	-25.757027	-41.839770	31.180370	6.599921	42.046048	28.759351	24.342470	4.093632	44.132184	29.219079	12.992418	-4.426812	52.622814	36.366203	0.268767	-7.527571	63.131285	42.647229
-1.465000	-160.147433	-5.066637	-73.570646	0.083257	-0.182840	-0.014879	101.249260	3.335532	-0.907530	15.404046	4.307573	-25.768272	-41.829672	31.169484	6.603997	42.059815	28.772075	24.335758	4.093305	44.149643	29.233073	12.981540	-4.426307	52.641812	36.369396	0.266050	-7.530771	63.141055	42.660928
-1.455000	-160.147433	-5.066637	-73.570646	0.083256	-0.182833	-0.014878	101.256333	3.339917	-0.899790	15.393301	4.325687	-25.777958	-41.813071	31.154882	6.608143	42.067054	28.781588	24.326825	4.092001	44.164031	29.245946	12.969602	-4.424713	52.655021	36.367556	0.261435	-7.530581	63.146903	42.672277
-1.445000	-160.147433	-5.066637	-73.570646	0.083258	-0.182824	-0.014875	101.268053	3.347831	-0.889781	15.381182	4.331213	-25.786155	-41.795549	31.140192	6.611919	42.062926	28.783281	24.317404	4.089401	44.174317	29.255116	12.958111	-4.422126	52.659878	36.360484	0.254555	-7.526650	63.147297	42.677931
-1.435000	-160.147433	-5.066637	-73.570646	0.083262	-0.182814	-0.014872	101.282406	3.358296	-0.879965	15.367474	4.324896	-25.793143	-41.783168	31.129067	6.614888	42.048970	28.776806	24.309985	4.085423	44.181893	29.259636	12.949308	-4.418911	52.656425	36.349487	0.246730	-7.519565	63.141514	42.675376
-1.425000	-160.147433	-5.066637	-73.570646	0.083267	-0.182807	-0.014868	101.296234	3.368994	-0.872914	15.352744	4.314046	-25.799246	-41.779287	31.123116	6.617013	42.032285	28.766385	24.306353	4.080502	44.189542	29.260725	12.944985	-4.415692	52.647662	36.337165	0.240182	-7.510818	63.130467	42.664632
-1.415000	-160.147433	-5.066637	-73.570646	0.083270	-0.182804	-0.014865	101.306015	3.377131	-0.869939	15.338013	4.309707	-25.804760	-41.782915	31.121290	6.618587	42.021734	28.758516	24.306572	4.075526	44.199799	29.261082	12.945313	-4.413200	52.638348	36.326406	0.236691	-7.502185	63.116767	42.648831
-1.405000	-160.147433	-5.066637	-73.570646	0.083271	-0.182804	-0.014863	101.308965	3.380492	-0.870529	15.324189	4.320744	-25.810067	-41.789874	31.121324	6.619691	42.023210	28.758386	24.309100	4.071510	44.213433	29.263287	12.948656	-4.412070	52.632923	36.319208	0.236443	-7.494753	63.103812	42.633108
-1.395000	-160.147433	-5.066637	-73.570646	0.083269	-0.182806	-0.014863	101.304017	3.378234	-0.872950	15.311707	4.348303	-25.815694	-41.795925	31.122088	6.619769	42.036573	28.767108	24.312110	4.069164	44.228735	29.268176	12.952648	-4.412672	52.633652	36.316032	0.237759	-7.488266	63.094444	42.622391
-1.385000	-160.147433	-5.066637	-73.570646	0.083266	-0.182807	-0.014865	101.292403	3.371208	-0.875491	15.300540	4.384225	-25.821865	-41.799374	31.124804	6.617852	42.056107	28.781481	24.315076	4.068592	44.242070	29.274255	12.955875	-4.414992	52.639913	36.315989	0.238024	-7.481362	63.089906	42.619305
-1.375000	-160.147433	-5.066637	-73.570646	0.083263	-0.182808	-0.014867	101.277503	3.361649	-0.877470	15.290397	4.414729	-25.827626	-41.801076	31.131924	6.613425	42.074351	28.796398	24.319302	4.069280	44.249665	29.278652	12.958884	-4.418611	52.648903	36.317587	0.235402	-7.472632	63.089502	42.623276
